<svg width="1521" height="531" viewBox="0 0 1521 531" fill="none" xmlns="http://www.w3.org/2000/svg">
<path d="M131.999 441.53V425.061C131.999 419.821 125.012 402.355 123.265 395.368C115.031 362.431 110.04 327.747 138.237 303.045C158.449 285.329 180.407 283.582 201.867 300.05C213.595 309.033 228.816 332.488 244.536 330.991C260.257 329.494 259.758 308.534 271.984 304.043C274.48 303.045 280.718 303.045 282.215 300.05C285.709 292.565 272.983 282.085 273.731 281.336C278.472 283.582 283.463 286.077 288.953 284.58C299.682 281.336 286.457 268.361 290.949 263.87C295.69 258.879 318.147 276.595 323.388 259.378C326.132 251.144 319.645 235.674 319.146 225.693C317.149 191.259 338.609 185.52 349.339 158.821C360.068 132.122 354.329 105.672 344.348 80.9697C370.05 101.93 385.271 146.844 385.271 191.758V360.185C382.526 403.602 347.093 438.536 303.675 441.53H131.999Z" fill="white"/>
<path d="M0 441.53V432.797C8.48399 430.052 17.7166 423.564 17.7166 410.09C17.7166 339.226 17.7166 264.868 17.7166 189.263C17.7166 99.6842 91.3277 21.8332 178.912 4.11708C299.685 -20.3361 423.451 66.9968 423.451 190.261C423.451 261.624 423.451 336.731 423.451 410.09C424.2 423.814 432.434 430.551 441.168 432.797V441.53H387.02V432.797C400.494 430.052 403.988 422.816 404.986 410.09C404.986 346.212 404.986 264.369 404.986 193.754C404.986 79.9719 292.947 -1.12289 181.158 22.8313C101.059 40.0483 36.4313 111.162 36.4313 192.756C36.4313 262.872 36.4313 364.927 36.4313 409.841C37.4294 422.566 40.9228 429.803 54.1479 432.547V441.281H0V441.53Z" fill="white"/>
<path d="M48.1529 340.253H44.6595C40.667 303.074 51.1472 265.147 74.1039 235.703C101.053 201.02 144.471 182.555 186.143 171.326C225.319 160.846 285.455 156.854 313.902 126.163C328.873 109.944 331.618 86.2392 329.123 65.2793C331.868 66.5269 333.614 68.5231 333.864 71.5174C339.354 122.919 304.919 152.612 261.001 169.33C213.84 187.046 163.934 189.541 119.518 215.741C75.102 241.941 50.1491 288.352 48.4024 340.253H48.1529Z" fill="white"/>
<path d="M80.3353 388.134H76.8419C71.6018 316.77 111.027 258.881 171.663 225.196C222.817 196.75 281.705 198.497 318.636 145.847C334.356 123.39 338.349 100.434 337.6 73.2363C340.844 75.482 341.343 78.7258 341.592 82.4687C346.583 140.358 306.658 192.259 253.758 211.971C241.282 216.712 227.807 218.958 215.081 223.199C140.971 248.152 82.082 306.29 80.3353 388.134Z" fill="white"/>
<path d="M1108.11 530.641L1086.9 526.15C1086.9 511.927 1091.64 496.207 1106.11 490.967C1114.1 487.973 1122.33 489.22 1130.57 487.723C1152.77 483.232 1167 458.778 1173.49 438.817C1165.5 435.822 1161.76 429.335 1158.01 421.849C1131.81 367.204 1115.59 303.825 1089.39 248.181C1085.65 239.947 1078.91 230.465 1075.67 222.73C1075.42 221.732 1074.92 221.233 1075.17 219.985H1109.61C1121.83 219.985 1137.55 228.968 1142.54 240.446L1195.19 383.672L1246.35 238.949C1251.09 228.968 1264.31 219.985 1275.54 219.985H1311.72C1303.24 235.705 1295.26 251.675 1288.02 268.143C1262.32 328.278 1241.11 391.158 1215.91 451.542C1202.18 484.978 1178.23 526.15 1137.55 530.641C1128.32 531.639 1117.59 529.892 1108.11 530.641Z" fill="white"/>
<path d="M670.452 251.9C671.949 252.899 675.941 246.161 677.189 244.664C693.408 226.699 713.121 215.969 737.824 214.472C820.918 209.232 824.411 278.35 821.167 338.235C819.42 372.669 819.92 407.103 822.914 441.288C793.968 441.538 768.267 432.305 765.772 399.867C763.027 364.186 768.517 325.011 765.772 289.578C764.275 270.365 754.543 256.142 734.081 254.396C712.372 252.649 692.66 259.885 676.939 274.857L677.438 417.833C677.438 448.524 627.782 450.77 624.788 419.58C621.045 378.408 627.782 331.498 624.788 289.578C623.041 262.131 606.572 252.649 580.621 254.396C564.402 255.394 547.683 263.628 536.704 275.605V400.117C534.208 432.555 508.257 441.787 479.562 441.538V439.292C482.556 403.111 484.053 366.93 484.053 330.75C484.053 294.07 482.556 257.39 479.562 220.71V219.962C495.531 220.461 520.235 222.207 528.968 237.927C531.464 242.169 531.713 246.91 533.46 251.152C543.94 233.186 561.657 221.209 582.118 216.967C615.056 209.981 657.226 216.967 670.452 252.15V251.9Z" fill="white"/>
<path d="M1060.98 438.054H1046.25C1043.26 438.054 1034.28 435.808 1030.78 434.81C1017.06 430.818 1006.58 421.586 1004.33 407.113C992.354 424.33 973.39 435.309 953.178 439.551C904.021 450.031 850.372 433.064 855.113 373.677C860.104 310.049 955.424 311.047 998.842 299.07C999.591 299.07 1001.09 299.07 1001.34 297.822C1001.84 293.331 1001.09 289.588 999.84 285.346C991.855 257.4 954.426 256.901 930.721 260.394C918.494 262.141 898.282 269.626 887.552 262.889C878.07 257.15 873.828 240.931 874.327 230.701C911.257 218.973 956.921 212.985 995.099 222.467C1070.21 241.181 1051.24 308.801 1053.24 368.188C1053.74 381.412 1054.49 394.887 1055.98 408.111C1057.23 418.092 1059.48 428.073 1061.22 438.054H1060.98ZM1001.09 331.258C980.128 334.752 957.42 337.247 937.209 344.483C920.49 350.721 906.017 359.704 907.265 379.666C908.263 395.885 921.239 402.871 936.21 404.119C959.666 405.866 984.619 400.127 1000.84 382.161V331.009L1001.09 331.258Z" fill="white"/>
<path d="M1520.08 438.031H1506.36C1499.12 438.031 1483.65 432.791 1477.41 428.549C1469.43 423.059 1466.68 416.572 1463.44 407.839C1449.47 426.054 1429.01 437.282 1406.3 440.526C1365.87 446.265 1319.96 436.284 1314.97 388.625C1306.99 312.271 1409.04 309.028 1461.2 297.799C1460.7 273.346 1443.98 262.117 1421.27 259.373C1398.56 256.628 1384.09 263.864 1363.38 265.361C1338.93 267.108 1335.68 251.138 1332.69 230.678C1365.63 219.948 1402.81 214.958 1437.24 219.199C1480.91 224.439 1509.85 246.647 1512.6 292.559C1515.09 332.233 1510.35 371.408 1515.34 411.581C1516.59 420.315 1518.59 429.048 1519.58 438.031H1520.08ZM1461.2 330.237C1435.24 337.224 1398.81 336.974 1377.35 354.69C1355.89 372.406 1367.12 401.351 1394.57 404.096C1419.27 406.341 1443.48 400.103 1460.95 382.387V330.237H1461.2Z" fill="white"/>
<path d="M523.487 142.848C521.99 139.604 519.993 137.109 516.999 135.363C514.254 133.616 510.761 132.618 507.018 132.618C503.524 132.618 500.031 133.366 497.286 135.113C494.292 136.86 492.046 139.105 490.549 142.349C488.802 145.344 488.054 149.086 488.054 153.079C488.054 157.071 488.802 160.814 490.549 163.808C492.296 166.802 494.541 169.298 497.286 171.044C500.281 172.791 503.524 173.54 507.018 173.54C510.511 173.54 513.506 172.791 516.25 171.294C518.995 169.797 521.241 167.801 522.738 165.056C524.485 162.311 525.233 159.067 525.483 155.574H505.022V151.582H530.723V155.075C530.723 159.317 529.226 163.309 527.23 166.553C525.233 170.046 522.239 172.791 518.746 174.787C515.252 176.783 511.26 177.781 507.018 177.781C502.776 177.781 498.534 176.783 494.791 174.538C491.048 172.541 488.303 169.547 486.057 165.804C484.061 162.062 482.813 157.82 482.813 153.079C482.813 148.338 483.812 144.096 486.057 140.353C488.054 136.61 491.048 133.616 494.791 131.62C498.534 129.624 502.526 128.376 507.018 128.376C512.258 128.376 516.749 129.624 520.742 132.368C524.734 134.864 527.479 138.606 529.226 143.098H523.487V142.848Z" fill="white"/>
<path d="M488.064 153.076C488.064 149.334 488.721 145.81 490.243 142.917L490.561 142.347C491.871 139.509 493.753 137.434 496.21 135.79L497.296 135.112C500.041 133.365 503.536 132.616 507.03 132.616L507.727 132.627C511.205 132.742 514.437 133.724 517.011 135.362C520.004 137.108 522.002 139.602 523.499 142.846V143.096H529.235C527.489 138.604 524.745 134.861 520.753 132.366C517.01 129.793 512.829 128.535 508.004 128.388L507.03 128.374C502.539 128.374 498.545 129.621 494.802 131.617L494.108 132.004C490.688 133.991 487.939 136.843 486.067 140.352C483.822 144.094 482.824 148.336 482.824 153.076C482.824 157.817 484.071 162.06 486.067 165.803C488.313 169.546 491.059 172.539 494.802 174.536C498.311 176.641 502.259 177.65 506.234 177.767L507.03 177.778C511.271 177.778 515.263 176.781 518.755 174.785C522.249 172.789 525.245 170.045 527.241 166.552C529.112 163.511 530.545 159.812 530.717 155.866L530.733 155.073V151.581H505.033V155.573H525.493C525.244 159.066 524.496 162.31 522.75 165.054L522.459 165.559C520.969 168.046 518.835 169.889 516.262 171.293L515.219 171.819C512.76 172.965 510.086 173.537 507.03 173.537V172.319C510.335 172.319 513.126 171.612 515.677 170.22C518.262 168.81 520.315 166.967 521.677 164.47L521.696 164.434L521.718 164.398C523.107 162.217 523.83 159.649 524.155 156.791H503.812V150.36H531.954V155.073C531.954 159.598 530.361 163.811 528.281 167.191L528.278 167.189C526.156 170.886 522.999 173.766 519.362 175.844C515.669 177.954 511.465 178.999 507.03 178.999C502.618 178.999 498.174 177.963 494.229 175.611V175.614C490.241 173.487 487.348 170.308 485.022 166.431L485.005 166.404L484.992 166.376C482.912 162.478 481.604 158.04 481.604 153.076C481.604 148.159 482.642 143.691 485.022 139.724C487.132 135.793 490.29 132.642 494.229 130.541C498.109 128.472 502.298 127.153 507.03 127.153C512.46 127.154 517.185 128.449 521.397 131.332C525.657 133.994 528.553 137.97 530.374 142.654L531.021 144.316H522.278V143.131C520.875 140.176 519.059 137.969 516.396 136.415L516.374 136.402L516.355 136.391C513.824 134.78 510.562 133.837 507.03 133.836C503.691 133.836 500.444 134.555 497.952 136.141L497.933 136.155L497.911 136.166C495.101 137.805 493.044 139.874 491.667 142.86L491.642 142.912L491.614 142.961C490.011 145.71 489.285 149.221 489.285 153.076C489.285 156.932 490.011 160.442 491.614 163.191C493.278 166.043 495.392 168.379 497.938 170.003C500.712 171.615 503.73 172.319 507.03 172.319V173.537L505.73 173.501C502.942 173.346 500.319 172.677 497.861 171.359L497.296 171.043C494.895 169.515 492.876 167.413 491.239 164.906L490.561 163.806C488.814 160.812 488.064 157.069 488.064 153.076Z" fill="white"/>
<path d="M572.394 177.299L560.417 157.087H551.434V177.299H546.443V128.642H561.166C566.655 128.642 570.648 129.889 573.393 132.634C576.137 135.129 577.635 138.623 577.635 142.864C577.635 146.358 576.636 149.352 574.64 151.847C572.644 154.342 569.65 155.84 565.657 156.588L578.134 177.299H572.394ZM551.434 153.095H561.166C564.909 153.095 567.903 152.097 569.65 150.35C571.646 148.603 572.644 146.108 572.644 142.864C572.644 139.621 571.646 137.125 569.899 135.379C568.152 133.632 565.158 132.883 561.166 132.883H551.434V153.095Z" fill="white"/>
<path d="M577.636 142.861C577.636 138.619 576.139 135.126 573.394 132.631C570.65 129.886 566.656 128.639 561.167 128.639V127.418C566.8 127.418 571.153 128.694 574.215 131.728C577.24 134.478 578.857 138.313 578.857 142.861C578.857 146.603 577.78 149.874 575.595 152.606C573.668 155.014 570.952 156.532 567.576 157.407L580.294 178.515H571.702L559.724 158.304H552.657V178.515H545.225V127.418H561.167V128.639H546.445V177.297H551.436V157.086H560.418L572.396 177.297H578.135L565.658 156.586C569.401 155.885 572.267 154.524 574.256 152.301L574.643 151.846C576.639 149.35 577.636 146.354 577.636 142.861ZM571.425 142.861C571.425 139.879 570.515 137.715 569.038 136.238C567.65 134.851 565.083 134.101 561.167 134.101H552.657V151.873H561.167V153.091H551.436V132.88H561.167C565.159 132.88 568.155 133.63 569.902 135.377C571.648 137.123 572.645 139.618 572.645 142.861C572.645 146.105 571.649 148.601 569.652 150.348L569.309 150.666C567.528 152.215 564.676 153.091 561.167 153.091V151.873C564.735 151.873 567.358 150.914 568.788 149.484L568.849 149.429C570.522 147.965 571.425 145.838 571.425 142.861Z" fill="white"/>
<path d="M599.093 128.89V159.581C599.093 164.322 600.34 168.065 602.586 170.31C604.832 172.556 608.076 173.804 612.068 173.804C616.061 173.804 619.055 172.556 621.301 170.31C623.546 168.065 624.794 164.322 624.794 159.581V128.89H629.785V159.331C629.785 165.569 628.038 170.061 624.794 173.305C621.55 176.299 617.308 178.046 612.068 178.046C606.828 178.046 602.586 176.548 599.342 173.305C596.098 170.31 594.352 165.569 594.352 159.331V128.89H599.342H599.093Z" fill="white"/>
<path d="M593.134 159.328V127.666H599.345V128.887H600.316V159.578C600.316 164.141 601.521 167.515 603.452 169.446C605.426 171.42 608.337 172.582 612.072 172.582V173.8L611.331 173.786C607.677 173.641 604.693 172.413 602.588 170.308C600.342 168.062 599.095 164.318 599.095 159.578V128.887H594.355V159.328C594.355 165.566 596.102 170.306 599.345 173.301C602.386 176.342 606.305 177.849 611.101 178.025L612.072 178.044C617.312 178.044 621.552 176.295 624.796 173.301C627.837 170.26 629.563 166.123 629.767 160.478L629.789 159.328V128.887H624.796V159.578C624.796 164.319 623.549 168.062 621.304 170.308C619.058 172.553 616.064 173.8 612.072 173.8V172.582C615.782 172.582 618.453 171.435 620.442 169.446C622.373 167.515 623.578 164.141 623.578 159.578V127.666H631.007V159.328C631.007 165.811 629.183 170.642 625.66 174.165L625.644 174.181L625.625 174.198C622.146 177.409 617.605 179.262 612.072 179.262C606.599 179.262 602.033 177.693 598.516 174.195V174.198C594.942 170.898 593.134 165.778 593.134 159.328Z" fill="white"/>
<path d="M674.211 152.845C671.466 155.341 667.474 156.588 661.984 156.588H652.252V177.299H647.262V128.642H661.984C667.474 128.642 671.466 129.889 674.211 132.384C676.956 134.88 678.453 138.373 678.453 142.615C678.453 146.857 677.205 150.101 674.46 152.596L674.211 152.845ZM673.462 142.864C673.462 139.621 672.464 137.125 670.717 135.379C668.971 133.632 665.976 132.883 661.984 132.883H652.252V152.596H661.984C669.47 152.596 673.462 149.352 673.462 142.864Z" fill="white"/>
<path d="M678.454 142.611C678.454 138.37 676.957 134.876 674.213 132.381C671.468 129.886 667.475 128.639 661.985 128.639V127.418C667.644 127.418 671.981 128.704 675.033 131.478C678.058 134.228 679.675 138.063 679.675 142.611C679.675 147.103 678.34 150.687 675.321 153.453L675.324 153.456L675.077 153.706L675.033 153.744C671.981 156.519 667.644 157.804 661.985 157.804H653.475V178.515H646.043V127.418H661.985V128.639H647.264V177.297H652.254V156.586H661.985L662.998 156.57C667.97 156.424 671.639 155.181 674.213 152.842L674.462 152.592C677.207 150.097 678.454 146.853 678.454 142.611ZM672.243 142.861C672.243 139.879 671.333 137.715 669.856 136.238C668.468 134.851 665.901 134.101 661.985 134.101H653.475V151.374H661.985V152.592H652.254V132.88H661.985C665.978 132.88 668.974 133.63 670.72 135.377C672.466 137.123 673.464 139.618 673.464 142.861C673.464 149.348 669.471 152.592 661.985 152.592V151.374C665.578 151.374 668.121 150.591 669.749 149.226C671.338 147.893 672.243 145.843 672.243 142.861Z" fill="white"/>
<path d="M703.141 174.803C699.399 172.807 696.654 169.813 694.408 166.07C692.412 162.327 691.164 158.085 691.164 153.344C691.164 148.603 692.162 144.362 694.408 140.619C696.404 136.876 699.399 133.882 703.141 131.885C706.884 129.889 710.877 128.642 715.368 128.642C719.86 128.642 724.102 129.64 727.595 131.885C731.338 133.882 734.083 136.876 736.329 140.619C738.325 144.362 739.573 148.603 739.573 153.344C739.573 158.085 738.575 162.327 736.329 166.07C734.333 169.813 731.338 172.807 727.595 174.803C723.852 176.799 719.86 178.047 715.368 178.047C710.877 178.047 706.884 177.049 703.141 174.803ZM725.1 171.06C728.094 169.314 730.34 167.068 731.837 163.824C733.584 160.58 734.333 157.087 734.333 152.845C734.333 148.603 733.584 145.11 731.837 142.116C730.091 139.122 727.845 136.626 725.1 134.88C722.106 133.133 718.862 132.384 715.368 132.384C711.875 132.384 708.382 133.133 705.637 134.88C702.642 136.626 700.397 138.872 698.899 142.116C697.153 145.11 696.404 148.853 696.404 152.845C696.404 156.838 697.153 160.58 698.899 163.824C700.646 167.068 702.892 169.314 705.637 171.06C708.631 172.807 711.875 173.556 715.368 173.556C718.862 173.556 722.355 172.807 725.1 171.06Z" fill="white"/>
<path d="M739.575 153.341C739.575 148.897 738.479 144.892 736.698 141.325L736.333 140.617C734.087 136.874 731.34 133.878 727.598 131.882C724.322 129.776 720.389 128.767 716.209 128.65L715.373 128.639C710.881 128.639 706.888 129.886 703.145 131.882L702.451 132.268C699.031 134.256 696.281 137.108 694.41 140.617C692.165 144.359 691.167 148.601 691.167 153.341C691.167 158.082 692.414 162.325 694.41 166.068C696.656 169.811 699.402 172.804 703.145 174.8C706.654 176.906 710.382 177.914 714.536 178.032L715.373 178.043C719.863 178.043 723.855 176.796 727.598 174.8C731.34 172.804 734.336 169.811 736.333 166.068C738.578 162.325 739.575 158.082 739.575 153.341ZM733.115 152.842C733.115 148.744 732.392 145.48 730.785 142.726C729.121 139.874 727.006 137.538 724.459 135.914C721.686 134.304 718.671 133.602 715.373 133.602C712.033 133.602 708.787 134.32 706.295 135.906L706.275 135.92L706.253 135.931C703.444 137.57 701.387 139.64 700.009 142.625L699.985 142.677L699.957 142.726C698.353 145.476 697.628 148.986 697.628 152.842C697.628 156.685 698.348 160.218 699.976 163.242C701.613 166.282 703.703 168.377 706.278 170.018C709.053 171.631 712.072 172.334 715.373 172.334V173.552L714.072 173.516C711.285 173.361 708.662 172.692 706.204 171.374L705.639 171.058C703.066 169.421 700.932 167.344 699.236 164.419L698.904 163.821C697.157 160.577 696.407 156.834 696.407 152.842C696.407 149.099 697.064 145.575 698.585 142.683L698.904 142.112C700.214 139.274 702.096 137.199 704.552 135.555L705.639 134.877C708.384 133.131 711.879 132.381 715.373 132.381L716.67 132.417C719.672 132.584 722.484 133.349 725.104 134.877C727.848 136.624 730.095 139.118 731.842 142.112C733.588 145.106 734.335 148.6 734.335 152.842C734.335 157.083 733.588 160.577 731.842 163.821L731.551 164.419C730.06 167.344 727.911 169.421 725.104 171.058C722.359 172.805 718.866 173.552 715.373 173.552V172.334C718.711 172.334 721.956 171.615 724.448 170.029L724.467 170.016L724.489 170.005C727.299 168.366 729.355 166.296 730.733 163.311L730.747 163.275L730.766 163.242C732.397 160.213 733.115 156.928 733.115 152.842ZM740.796 153.341C740.796 158.258 739.758 162.729 737.378 166.696C735.268 170.627 732.112 173.778 728.174 175.878C724.293 177.948 720.104 179.264 715.373 179.264C710.706 179.264 706.509 178.225 702.572 175.876V175.878C698.584 173.752 695.691 170.573 693.365 166.696L693.348 166.669L693.334 166.641C691.255 162.743 689.946 158.304 689.946 153.341C689.946 148.424 690.984 143.956 693.365 139.988C695.475 136.057 698.633 132.907 702.572 130.806C706.452 128.737 710.641 127.418 715.373 127.418C720.023 127.418 724.495 128.449 728.223 130.834C731.688 132.693 734.322 135.349 736.478 138.567L737.378 139.988L737.394 140.016L737.408 140.041C739.487 143.939 740.796 148.377 740.796 153.341Z" fill="white"/>
</svg>
